<svg xmlns="http://www.w3.org/2000/svg" width="878" height="878" viewBox="0 0 878 878">
  <g id="mis" transform="translate(4453 22843)">
    <g id="Elipse_51" data-name="Elipse 51" transform="translate(-4453 -22843)" fill="#ed3237" stroke="#707070" stroke-width="1">
      <circle cx="439" cy="439" r="439" stroke="none"/>
      <circle cx="439" cy="439" r="438.5" fill="none"/>
    </g>
    <g id="missao" transform="translate(-4150 -22611)">
      <g id="XMLID_41_" transform="translate(-31 20)">
        <path id="XMLID_4218_" d="M312.253,139.821a7.93,7.93,0,0,0,11.215-11.215l-.107-.107a7.93,7.93,0,0,0-11.215,11.215Z" transform="translate(-64.134 -41.979)" fill="#fff"/>
        <path id="XMLID_4221_" d="M376.053,192.874l27.64-27.64a7.93,7.93,0,0,0-5.608-13.537H340.79A172.882,172.882,0,1,0,50.634,315.114a174.114,174.114,0,0,0,31.779,25.138L58.522,382.459a7.931,7.931,0,0,0,6.9,11.836h40.839a7.93,7.93,0,0,0,6.9-4.024l16.892-29.845a174.963,174.963,0,0,0,85.636,0l16.892,29.845a7.93,7.93,0,0,0,6.9,4.024h40.839a7.93,7.93,0,0,0,6.9-11.836l-23.891-42.207a174.149,174.149,0,0,0,31.779-25.138,172.288,172.288,0,0,0,45.675-81.063h57.3a7.93,7.93,0,0,0,5.608-13.537Zm-14.5-7.93H306.21L323.6,167.556h55.343ZM101.638,378.435H79.023l17.26-30.493a170.5,170.5,0,0,0,18.227,7.752Zm165.086,0H244.11l-12.873-22.742a170.5,170.5,0,0,0,18.227-7.752ZM283.9,303.9a157.719,157.719,0,0,1-34.77,26.3c-.155.075-.312.147-.465.233-.1.055-.183.117-.276.175a154.964,154.964,0,0,1-30.405,12.733,7.853,7.853,0,0,0-1.232.357,158.553,158.553,0,0,1-87.755,0,7.874,7.874,0,0,0-1.233-.357,154.95,154.95,0,0,1-30.4-12.733c-.093-.058-.18-.121-.276-.175-.153-.086-.309-.158-.465-.233a157.7,157.7,0,0,1-34.77-26.3A157.013,157.013,0,1,1,324.42,151.7h-4.106a7.931,7.931,0,0,0-5.607,2.323l-21.047,21.047a122.177,122.177,0,0,0-13.824-41.185,7.93,7.93,0,1,0-13.885,7.666,105.3,105.3,0,0,1,12.809,43.4H243.8a71.393,71.393,0,1,0,0,15.859h34.931A106.157,106.157,0,1,1,224.2,99.8a7.93,7.93,0,1,0,7.666-13.885,123,123,0,0,0-75.312-14.071A122.125,122.125,0,1,0,293.687,210.711l21.018,21.018a7.931,7.931,0,0,0,5.607,2.323h4.1A156.5,156.5,0,0,1,283.9,303.9ZM198.773,177.921a7.928,7.928,0,0,0-10.832-2.9l-19.032,10.988a7.93,7.93,0,0,0,0,13.735l19.032,10.988a7.923,7.923,0,0,0,11.272-9.925h28.605a55.083,55.083,0,0,1-15.693,31.321h0a55.5,55.5,0,1,1,15.694-47.181H199.214A7.909,7.909,0,0,0,198.773,177.921ZM323.6,218.191,306.21,200.8h55.343l17.388,17.387Z" transform="translate(0 -20)" fill="#fff"/>
      </g>
    </g>
  </g>
</svg>
